<svg width="16" height="16" viewBox="0 0 16 16" fill="none" xmlns="http://www.w3.org/2000/svg">
<g id="vuesax/bold/calendar-2">
<g id="calendar-2">
<path id="Vector" d="M10.6665 2.82944L11.1206 2.87143C11.9272 2.94613 12.4716 3.217 12.8306 3.59799C13.1603 3.94808 13.3727 4.43418 13.4536 5.05991H2.54639C2.62724 4.43438 2.83885 3.94806 3.16846 3.59799C3.52742 3.21692 4.07264 2.94614 4.87939 2.87143L5.3335 2.82944V2.83334H10.6665V2.82944Z" fill="#65A30D" stroke="#65A30D"/>
<path id="Vector_2" d="M6.83301 9.33344C6.83299 9.49588 6.79583 9.64765 6.74121 9.77875L6.69531 9.87738C6.64547 9.97276 6.58391 10.0608 6.51172 10.1411L6.49414 10.1606L6.47461 10.1782L6.3916 10.2475C6.30611 10.3126 6.2127 10.3668 6.1123 10.4086C5.98128 10.4632 5.82932 10.5004 5.66699 10.5004C5.50447 10.5004 5.35185 10.4633 5.2207 10.4086L5.12305 10.3627C5.02738 10.3128 4.93883 10.2505 4.8584 10.1782L4.83887 10.1606L4.82129 10.1411C4.72495 10.034 4.64756 9.91258 4.5918 9.77875L4.55469 9.67719C4.52113 9.57143 4.50001 9.45543 4.5 9.33344C4.5 9.17107 4.53724 9.01918 4.5918 8.88812L4.6377 8.78949C4.68751 8.69411 4.74913 8.60605 4.82129 8.52582L4.83887 8.50629L4.8584 8.48871C4.9655 8.39231 5.08684 8.31404 5.2207 8.25824L5.3291 8.22015C5.58482 8.14276 5.86463 8.15506 6.1123 8.25824C6.21274 8.30009 6.30608 8.35425 6.3916 8.41937L6.47461 8.48871L6.49414 8.50629L6.51172 8.52582C6.60808 8.63293 6.68544 8.75427 6.74121 8.88812L6.7793 8.98969C6.8128 9.09537 6.83301 9.21155 6.83301 9.33344ZM6.83301 9.33344C6.83301 9.02373 6.96206 8.72928 7.16406 8.51605L7.17773 8.5014L7.19238 8.48871C7.29954 8.39227 7.42075 8.31405 7.55469 8.25824L7.65039 8.22113C7.909 8.13537 8.19294 8.14817 8.44434 8.25824H8.44531C8.44653 8.25875 8.448 8.25968 8.44922 8.26019C8.45333 8.26202 8.45782 8.2632 8.46191 8.26508H8.46094C8.55546 8.30594 8.64351 8.35765 8.72461 8.41937L8.80762 8.48871L8.82227 8.5014L8.83594 8.51605C9.03794 8.72928 9.16699 9.02373 9.16699 9.33344C9.16696 9.6431 9.03792 9.93761 8.83594 10.1508L8.82227 10.1655L8.80762 10.1782C8.70047 10.2746 8.57924 10.3528 8.44531 10.4086C8.31427 10.4632 8.16234 10.5004 8 10.5004C7.83766 10.5004 7.68573 10.4632 7.55469 10.4086C7.42076 10.3528 7.29953 10.2746 7.19238 10.1782L7.17773 10.1655L7.16406 10.1508C6.96208 9.93761 6.83304 9.6431 6.83301 9.33344ZM2.66699 7.06H13.333C13.4235 7.06 13.5 7.13646 13.5 7.22699V11.3334C13.5 12.2567 13.2689 12.9496 12.8418 13.4096C12.4209 13.8629 11.7382 14.1664 10.667 14.1664H5.33301C4.26183 14.1664 3.57908 13.8629 3.1582 13.4096C2.73108 12.9496 2.50002 12.2567 2.5 11.3334V7.22699C2.5 7.13647 2.57647 7.06 2.66699 7.06ZM6.1123 10.5922C5.86464 10.489 5.58482 10.4758 5.3291 10.5532L5.2207 10.5922C5.08693 10.648 4.96544 10.7254 4.8584 10.8217L4.84375 10.8354L4.83008 10.8491C4.62812 11.0622 4.50006 11.3568 4.5 11.6664C4.5 11.9761 4.62816 12.2706 4.83008 12.4838L4.84375 12.4985L4.8584 12.5112C4.93879 12.5835 5.02743 12.6458 5.12305 12.6957L5.2207 12.7416C5.35185 12.7963 5.50447 12.8334 5.66699 12.8334C5.82937 12.8334 5.98126 12.7962 6.1123 12.7416C6.24625 12.6858 6.36745 12.6076 6.47461 12.5112L6.48926 12.4985L6.50293 12.4838C6.70494 12.2706 6.83301 11.9761 6.83301 11.6664C6.83295 11.3568 6.70489 11.0622 6.50293 10.8491L6.48926 10.8354L6.47461 10.8217L6.3916 10.7534C6.30604 10.6882 6.2128 10.6341 6.1123 10.5922Z" fill="#65A30D" stroke="#65A30D"/>
</g>
</g>
</svg>
