<svg width="16" height="16" viewBox="0 0 16 16" fill="none" xmlns="http://www.w3.org/2000/svg">
<g id="vuesax/linear/call">
<g id="call">
<g id="call_2">
<path id="Vector" d="M14.6466 12.2202C14.6466 12.4602 14.5933 12.7068 14.48 12.9468C14.3666 13.1868 14.22 13.4135 14.0266 13.6268C13.7 13.9868 13.34 14.2468 12.9333 14.4135C12.5333 14.5802 12.1 14.6668 11.6333 14.6668C10.9533 14.6668 10.2266 14.5068 9.45998 14.1802C8.69331 13.8535 7.92665 13.4135 7.16665 12.8602C6.39998 12.3002 5.67331 11.6802 4.97998 10.9935C4.29331 10.3002 3.67331 9.5735 3.11998 8.8135C2.57331 8.0535 2.13331 7.2935 1.81331 6.54016C1.49331 5.78016 1.33331 5.0535 1.33331 4.36016C1.33331 3.90683 1.41331 3.4735 1.57331 3.0735C1.73331 2.66683 1.98665 2.2935 2.33998 1.96016C2.76665 1.54016 3.23331 1.3335 3.72665 1.3335C3.91331 1.3335 4.09998 1.3735 4.26665 1.4535C4.43998 1.5335 4.59331 1.6535 4.71331 1.82683L6.25998 4.00683C6.37998 4.1735 6.46665 4.32683 6.52665 4.4735C6.58665 4.6135 6.61998 4.7535 6.61998 4.88016C6.61998 5.04016 6.57331 5.20016 6.47998 5.3535C6.39331 5.50683 6.26665 5.66683 6.10665 5.82683L5.59998 6.3535C5.52665 6.42683 5.49331 6.5135 5.49331 6.62016C5.49331 6.6735 5.49998 6.72016 5.51331 6.7735C5.53331 6.82683 5.55331 6.86683 5.56665 6.90683C5.68665 7.12683 5.89331 7.4135 6.18665 7.76016C6.48665 8.10683 6.80665 8.46016 7.15331 8.8135C7.51331 9.16683 7.85998 9.4935 8.21331 9.7935C8.55998 10.0868 8.84665 10.2868 9.07331 10.4068C9.10665 10.4202 9.14665 10.4402 9.19331 10.4602C9.24665 10.4802 9.29998 10.4868 9.35998 10.4868C9.47331 10.4868 9.55998 10.4468 9.63331 10.3735L10.14 9.8735C10.3066 9.70683 10.4666 9.58016 10.62 9.50016C10.7733 9.40683 10.9266 9.36016 11.0933 9.36016C11.22 9.36016 11.3533 9.38683 11.5 9.44683C11.6466 9.50683 11.8 9.5935 11.9666 9.70683L14.1733 11.2735C14.3466 11.3935 14.4666 11.5335 14.54 11.7002C14.6066 11.8668 14.6466 12.0335 14.6466 12.2202Z" fill="white" stroke="white" stroke-width="1.5" stroke-miterlimit="10"/>
</g>
</g>
</g>
</svg>
