<svg width="16" height="16" viewBox="0 0 16 16" fill="none" xmlns="http://www.w3.org/2000/svg">
<g id="vuesax/bold/facebook">
<g id="facebook">
<path id="Vector" d="M11.7728 5.75146L11.7464 4.15186H11.7455C11.7416 3.8149 11.5065 3.53843 11.1888 3.47412L11.0462 3.46045H11.0394L9.23959 3.48682H9.23764C7.94295 3.51021 6.8938 4.50745 6.78842 5.77295L6.77963 6.02881L6.80991 7.6958L6.17807 7.70654C5.84107 7.71051 5.56444 7.94733 5.50034 8.26514L5.48666 8.40674V8.41455L5.50717 9.68115V9.68018C5.51025 10.018 5.74648 10.2956 6.06479 10.3599L6.20639 10.3735H6.21518L6.84897 10.3618L6.90659 13.9946V13.9956C6.90828 14.0906 6.83205 14.1665 6.73959 14.1665H5.20639C4.09267 14.1664 3.26422 13.8363 2.7142 13.2856C2.16407 12.7348 1.83334 11.9042 1.83334 10.7866V5.20654C1.8334 4.09279 2.16315 3.26346 2.71323 2.71338C3.2633 2.1633 4.09264 1.83355 5.20639 1.8335H10.7933C11.9071 1.8335 12.7363 2.16335 13.2865 2.71338C13.8365 3.26346 14.1663 4.09279 14.1664 5.20654V10.7935C14.1664 11.9074 13.8366 12.7365 13.2865 13.2866C12.7363 13.8367 11.9072 14.1665 10.7933 14.1665H10.0003C9.90992 14.1665 9.83353 14.0909 9.83334 14.0005V10.3169L10.8421 10.3003H10.8558L10.8685 10.2993C11.1763 10.2773 11.4478 10.0559 11.516 9.73779L11.5169 9.73096L11.5189 9.72314L11.7523 8.45068L11.7533 8.44189C11.8193 8.04422 11.5352 7.67564 11.14 7.63135L11.0599 7.62646H11.0531L9.79721 7.64404L9.77768 6.48193L11.0814 6.46045L11.0804 6.45947C11.4665 6.45573 11.7737 6.14739 11.7738 5.76025L11.7728 5.75146Z" fill="white" stroke="white"/>
</g>
</g>
</svg>
