<svg width="16" height="16" viewBox="0 0 16 16" fill="none" xmlns="http://www.w3.org/2000/svg">
<g id="vuesax/bold/instagram">
<g id="instagram">
<path id="Vector" d="M5.20638 1.8335H10.7933C11.9073 1.8335 12.7363 2.16353 13.2855 2.71338C13.8001 3.22869 14.1209 3.98915 14.1566 4.99951L14.1605 5.20557V10.7935C14.1605 11.9074 13.8297 12.7365 13.2796 13.2866C12.7295 13.8367 11.9003 14.1665 10.7865 14.1665H5.20638C4.09265 14.1664 3.2642 13.8363 2.71419 13.2856C2.16405 12.7348 1.83333 11.9042 1.83333 10.7866V5.20654C1.83338 4.09279 2.16313 3.26346 2.71321 2.71338C3.26329 2.1633 4.09262 1.83355 5.20638 1.8335ZM8.00032 4.91357C6.29751 4.91357 4.91341 6.29768 4.91341 8.00049C4.91358 9.70315 6.29762 11.0864 8.00032 11.0864C9.70287 11.0862 11.0861 9.70304 11.0863 8.00049C11.0863 6.29779 9.70298 4.91375 8.00032 4.91357ZM11.5296 3.18604C11.1538 3.11722 10.766 3.24654 10.5062 3.50635L10.4886 3.52588C10.4229 3.5989 10.3582 3.6835 10.304 3.78857L10.2581 3.88818C10.2036 4.01924 10.1663 4.17114 10.1663 4.3335C10.1663 4.45545 10.1875 4.57151 10.221 4.67725L10.2581 4.77881C10.3139 4.91275 10.3922 5.03396 10.4886 5.14111L10.5062 5.16064C10.7301 5.38453 11.0257 5.50049 11.3333 5.50049C11.4957 5.50049 11.6476 5.46324 11.7786 5.40869C11.879 5.36689 11.9725 5.31259 12.0579 5.24756L12.1409 5.17822L12.1605 5.16064L12.1781 5.14111C12.2504 5.06077 12.3127 4.97299 12.3626 4.87744L12.4085 4.77881C12.4631 4.64775 12.5003 4.49585 12.5003 4.3335C12.5003 4.17114 12.4631 4.01924 12.4085 3.88818H12.4075C12.3465 3.735 12.2633 3.62063 12.1781 3.52588L12.1507 3.49561L12.1195 3.46924L12.1077 3.46045C12.103 3.45633 12.0901 3.44524 12.0804 3.43701C12.0628 3.42203 12.0273 3.3935 11.9827 3.36475L11.9837 3.36377C11.98 3.36127 11.9758 3.3594 11.972 3.35693C11.9693 3.35524 11.967 3.35275 11.9642 3.35107L11.9632 3.35205C11.8966 3.30972 11.8239 3.2721 11.7445 3.24561H11.7435C11.688 3.22294 11.6297 3.20454 11.5658 3.19287L11.5667 3.19189C11.5599 3.19041 11.553 3.18934 11.5462 3.18799C11.5411 3.18716 11.5358 3.18581 11.5306 3.18506L11.5296 3.18604Z" fill="white" stroke="white"/>
</g>
</g>
</svg>
