<svg width="16" height="16" viewBox="0 0 16 16" fill="none" xmlns="http://www.w3.org/2000/svg">
<path d="M7.99304 1.66675H7.99988C10.1175 1.66675 12.4708 2.86644 13.1942 5.48608L13.2587 5.7439C13.9321 8.71394 12.2773 11.3024 10.5194 13.1033L10.1669 13.4529L10.1649 13.4548C9.5618 14.0407 8.78149 14.3337 7.99988 14.3337C7.26764 14.3337 6.53515 14.0766 5.94324 13.5603L5.82703 13.4529H5.82605C3.94733 11.6463 2.01629 8.90604 2.73425 5.73804C3.37013 2.94017 5.81245 1.66684 7.99304 1.66675ZM7.99988 4.27319C6.56376 4.27323 5.40027 5.43766 5.40027 6.87378C5.40047 8.30973 6.56389 9.47335 7.99988 9.47339C9.4359 9.47339 10.5993 8.30975 10.5995 6.87378C10.5995 5.43764 9.43602 4.27319 7.99988 4.27319Z" fill="#65A30D" stroke="#65A30D"/>
</svg>
