<svg width="16" height="16" viewBox="0 0 16 16" fill="none" xmlns="http://www.w3.org/2000/svg">
<g id="vuesax/bold/location">
<path id="Vector" d="M7.9931 1.6665H7.99994C10.1176 1.6665 12.4709 2.8662 13.1943 5.48584L13.2587 5.74365C13.9322 8.71369 12.2774 11.3022 10.5195 13.103L10.1669 13.4526L10.165 13.4546C9.56186 14.0405 8.78156 14.3335 7.99994 14.3335C7.26771 14.3335 6.53522 14.0763 5.9433 13.5601L5.82709 13.4526H5.82611C3.94739 11.6461 2.01636 8.90579 2.73431 5.73779C3.37019 2.93992 5.81251 1.66659 7.9931 1.6665ZM7.99994 4.27295C6.56383 4.27298 5.40033 5.43741 5.40033 6.87354C5.40053 8.30949 6.56395 9.47311 7.99994 9.47314C9.43596 9.47314 10.5994 8.30951 10.5995 6.87354C10.5995 5.43739 9.43608 4.27295 7.99994 4.27295Z" fill="white" stroke="white"/>
</g>
</svg>
