<svg width="16" height="16" viewBox="0 0 16 16" fill="none" xmlns="http://www.w3.org/2000/svg">
<g id="vuesax/bold/profile-2user">
<g id="profile-2user">
<path id="Vector" d="M6.00024 1.83334C7.37876 1.83351 8.51586 2.88483 8.65259 4.22787L8.66626 4.50034C8.65946 5.94539 7.53195 7.10987 6.09595 7.16049H6.07349C6.02158 7.15654 5.97036 7.15522 5.92212 7.15854C4.44877 7.10032 3.33342 5.93567 3.33325 4.50034C3.33325 3.02981 4.52972 1.83334 6.00024 1.83334Z" fill="#65A30D" stroke="#65A30D"/>
<path id="Vector_2" d="M6.00879 9.00333C7.08563 9.0034 8.13826 9.25999 8.9502 9.74844L9.10938 9.84903C9.79936 10.309 10.1439 10.883 10.1885 11.4613L10.1934 11.5775C10.1919 12.1565 9.88788 12.7363 9.24121 13.2172L9.10742 13.3119C8.27326 13.8718 7.14937 14.1664 6 14.1664C4.92224 14.1664 3.86684 13.9074 3.05176 13.4135L2.8916 13.3119L2.89062 13.3109L2.75684 13.2172C2.10987 12.7409 1.80664 12.1599 1.80664 11.5863C1.80676 10.974 2.15291 10.348 2.89844 9.84903L2.89746 9.84805C3.73559 9.29402 4.86106 9.00333 6.00879 9.00333Z" fill="#65A30D" stroke="#65A30D"/>
<path id="Vector_3" d="M10.7837 3.21021C11.7508 3.12659 12.623 3.79907 12.8022 4.74341L12.8286 4.93579C12.9121 5.95667 12.1931 6.84208 11.2017 6.9729C11.1815 6.97251 11.1153 6.97275 11.0347 6.98755C10.7246 6.99876 10.4352 6.94182 10.1792 6.83032C10.6605 6.20582 10.9347 5.41959 10.9165 4.57642L10.9048 4.3606V4.35669L10.8765 4.12329C10.8283 3.80964 10.7395 3.51179 10.6177 3.23364C10.6724 3.22416 10.7284 3.21619 10.7847 3.21118L10.7837 3.21021Z" fill="#65A30D" stroke="#65A30D"/>
<path id="Vector_4" d="M14.66 11.06C14.6067 11.7067 14.1933 12.2667 13.5 12.6467C12.8333 13.0133 11.9933 13.1867 11.16 13.1667C11.64 12.7333 11.92 12.1933 11.9733 11.62C12.04 10.7933 11.6467 10 10.86 9.36667C10.4133 9.01333 9.89333 8.73333 9.32666 8.52667C10.8 8.1 12.6533 8.38667 13.7933 9.30667C14.4067 9.8 14.72 10.42 14.66 11.06Z" fill="#65A30D"/>
</g>
</g>
</svg>
