<svg width="16" height="16" viewBox="0 0 16 16" fill="none" xmlns="http://www.w3.org/2000/svg">
<g id="vuesax/bold/sms">
<g id="sms">
<path id="Vector" d="M11.3333 2.3335H4.66665C2.66665 2.3335 1.33331 3.3335 1.33331 5.66683V10.3335C1.33331 12.6668 2.66665 13.6668 4.66665 13.6668H11.3333C13.3333 13.6668 14.6666 12.6668 14.6666 10.3335V5.66683C14.6666 3.3335 13.3333 2.3335 11.3333 2.3335ZM11.6466 6.3935L9.55998 8.06016C9.11998 8.4135 8.55998 8.58683 7.99998 8.58683C7.43998 8.58683 6.87331 8.4135 6.43998 8.06016L4.35331 6.3935C4.13998 6.22016 4.10665 5.90016 4.27331 5.68683C4.44665 5.4735 4.75998 5.4335 4.97331 5.60683L7.05998 7.2735C7.56665 7.68016 8.42665 7.68016 8.93331 7.2735L11.02 5.60683C11.2333 5.4335 11.5533 5.46683 11.72 5.68683C11.8933 5.90016 11.86 6.22016 11.6466 6.3935Z" fill="white"/>
</g>
</g>
</svg>
