<svg width="36" height="42" viewBox="0 0 36 42" fill="none" xmlns="http://www.w3.org/2000/svg">
<path d="M35.2822 21.1357C37.7509 15.084 33.2592 8.70117 30.7562 7.49686C31.5791 9.84527 32.6077 15.5357 29.6247 19.5099C26.6416 23.4841 25.0987 30.8003 26.0245 35.4068C26.9502 40.0133 35.385 43.3553 33.4306 41.4585C31.8671 39.9411 31.0648 36.7918 30.859 35.4068C30.6533 27.7293 32.8134 27.1874 35.2822 21.1357Z" fill="#84CC16"/>
<path d="M0 6.32265C0.137151 9.99581 1.48123 17.866 5.76035 19.9615C6.7547 20.5034 9.1137 21.497 10.5949 21.1357C12.1036 20.4432 15.4089 19.1486 16.561 19.5099C14.5723 17.6733 10.0189 13.8737 7.71476 13.3679C9.60059 13.5786 13.8248 14.4879 15.6352 16.4389C14.8466 14.9034 13.3311 11.453 13.578 9.93559C12.275 9.60441 8.96969 9.08655 6.17181 9.66462C4.42313 9.27322 0.740617 8.05686 0 6.32265Z" fill="#84CC16"/>
<path d="M17.2811 0C15.2581 3.8237 13.1871 13.4221 18.6183 17.6131C20.9841 19.2389 22.0128 19.4196 25.4073 20.4131C25.9216 18.155 24.6461 12.5188 21.1899 9.48397C23.0757 10.9292 27.0325 14.8311 27.7731 18.8776C28.836 17.2819 30.6533 12.3743 28.8018 9.93559C26.9502 7.49686 24.8929 7.13556 21.4985 5.78071C18.104 4.42585 17.6925 3.10713 17.2811 0Z" fill="#A3E635"/>
<path d="M4.52599 23.0325C6.24038 25.0497 10.6978 28.6326 14.6066 28.7229C17.8982 28.7229 22.7328 28.0906 24.3786 26.1938C23.5557 25.6519 19.1943 24.4777 14.0923 24.839C15.2238 24.2669 18.7829 23.3396 23.9672 24.2067C23.6929 23.0024 21.7453 20.5576 16.1496 20.4131C14.7438 20.6841 11.5619 21.5873 10.0806 23.0325C8.88054 23.1228 6.08952 23.2493 4.52599 23.0325Z" fill="#65A30D"/>
</svg>
