<svg width="134" height="42" viewBox="0 0 134 42" fill="none" xmlns="http://www.w3.org/2000/svg">
<path d="M35.2822 21.1357C37.7509 15.084 33.2592 8.70117 30.7562 7.49686C31.5791 9.84527 32.6077 15.5357 29.6247 19.5099C26.6416 23.4841 25.0987 30.8003 26.0245 35.4068C26.9502 40.0133 35.385 43.3553 33.4306 41.4585C31.8671 39.9411 31.0648 36.7918 30.859 35.4068C30.6533 27.7293 32.8134 27.1874 35.2822 21.1357Z" fill="#84CC16"/>
<path d="M0 6.32265C0.137151 9.99581 1.48123 17.866 5.76035 19.9615C6.7547 20.5034 9.1137 21.497 10.5949 21.1357C12.1036 20.4432 15.4089 19.1486 16.561 19.5099C14.5723 17.6733 10.0189 13.8737 7.71476 13.3679C9.60059 13.5786 13.8248 14.4879 15.6352 16.4389C14.8466 14.9034 13.3311 11.453 13.578 9.93559C12.275 9.60441 8.96969 9.08655 6.17181 9.66462C4.42313 9.27322 0.740617 8.05686 0 6.32265Z" fill="#84CC16"/>
<path d="M17.2811 0C15.2581 3.8237 13.1871 13.4221 18.6183 17.6131C20.9841 19.2389 22.0128 19.4196 25.4073 20.4131C25.9216 18.155 24.6461 12.5188 21.1899 9.48397C23.0757 10.9292 27.0325 14.8311 27.7731 18.8776C28.836 17.2819 30.6533 12.3743 28.8018 9.93559C26.9502 7.49686 24.8929 7.13556 21.4985 5.78071C18.104 4.42585 17.6925 3.10713 17.2811 0Z" fill="#A3E635"/>
<path d="M4.52599 23.0325C6.24038 25.0497 10.6978 28.6326 14.6066 28.7229C17.8982 28.7229 22.7328 28.0906 24.3786 26.1938C23.5557 25.6519 19.1943 24.4777 14.0923 24.839C15.2238 24.2669 18.7829 23.3396 23.9672 24.2067C23.6929 23.0024 21.7453 20.5576 16.1496 20.4131C14.7438 20.6841 11.5619 21.5873 10.0806 23.0325C8.88054 23.1228 6.08952 23.2493 4.52599 23.0325Z" fill="#65A30D"/>
<path d="M45.528 17.034V9.852H43.358C42.7 9.852 42.168 9.516 42.168 8.886C42.168 8.256 42.7 7.92 43.358 7.92H49.994C50.652 7.92 51.184 8.256 51.184 8.886C51.184 9.516 50.652 9.852 49.994 9.852H47.824V17.034C47.824 17.72 47.376 18.182 46.676 18.182C45.976 18.182 45.528 17.72 45.528 17.034ZM52.4716 16.656V9.264C52.4716 8.242 53.0036 7.92 53.8156 7.92H59.2056C59.8776 7.92 60.3676 8.116 60.3676 8.844C60.3676 9.572 59.8776 9.768 59.2056 9.768H54.7676V11.952H58.6596C59.2616 11.952 59.7376 12.12 59.7376 12.834C59.7376 13.548 59.2616 13.716 58.6596 13.716H54.7676V16.152H59.3176C59.9896 16.152 60.4796 16.348 60.4796 17.076C60.4796 17.804 59.9896 18 59.3176 18H53.8156C53.0036 18 52.4716 17.678 52.4716 16.656ZM64.4635 17.034V9.852H62.2935C61.6355 9.852 61.1035 9.516 61.1035 8.886C61.1035 8.256 61.6355 7.92 62.2935 7.92H68.9295C69.5875 7.92 70.1195 8.256 70.1195 8.886C70.1195 9.516 69.5875 9.852 68.9295 9.852H66.7595V17.034C66.7595 17.72 66.3115 18.182 65.6115 18.182C64.9115 18.182 64.4635 17.72 64.4635 17.034ZM71.4071 16.656V9.264C71.4071 8.242 71.9391 7.92 72.7511 7.92H78.1411C78.8131 7.92 79.3031 8.116 79.3031 8.844C79.3031 9.572 78.8131 9.768 78.1411 9.768H73.7031V11.952H77.5951C78.1971 11.952 78.6731 12.12 78.6731 12.834C78.6731 13.548 78.1971 13.716 77.5951 13.716H73.7031V16.152H78.2531C78.9251 16.152 79.4151 16.348 79.4151 17.076C79.4151 17.804 78.9251 18 78.2531 18H72.7511C71.9391 18 71.4071 17.678 71.4071 16.656ZM80.8931 17.076V9.082C80.8931 8.13 81.3551 7.738 82.3351 7.738C82.8111 7.738 83.2311 7.92 83.4831 8.34L87.5011 14.822H87.5291V8.844C87.5291 8.102 87.9491 7.738 88.6351 7.738C89.3211 7.738 89.7411 8.102 89.7411 8.844V16.754C89.7411 17.664 89.3491 18.182 88.3831 18.182C87.6551 18.182 87.4171 18.028 87.1231 17.566L83.1331 11.266H83.1051V17.076C83.1051 17.818 82.6851 18.182 81.9991 18.182C81.3131 18.182 80.8931 17.818 80.8931 17.076ZM101.184 13.618V17.412C101.184 17.832 100.862 18.182 100.4 18.182C99.7416 18.182 99.5596 17.776 99.4196 16.88C98.7616 17.706 97.8516 18.238 96.4236 18.238C92.8676 18.238 91.5096 15.788 91.5096 12.96C91.5096 9.558 93.6376 7.682 96.7596 7.682C99.3076 7.682 100.666 9.208 100.666 10.104C100.666 10.902 100.078 11.112 99.5876 11.112C98.4536 11.112 98.8736 9.53 96.6336 9.53C95.0516 9.53 93.8056 10.566 93.8056 13.114C93.8056 15.102 94.7856 16.474 96.6616 16.474C97.8796 16.474 98.9436 15.648 99.0556 14.416H97.5576C97.0676 14.416 96.5216 14.234 96.5216 13.534C96.5216 12.974 96.8436 12.652 97.4176 12.652H100.246C100.918 12.652 101.184 12.988 101.184 13.618ZM103.304 16.656V9.264C103.304 8.242 103.836 7.92 104.648 7.92H110.038C110.71 7.92 111.2 8.116 111.2 8.844C111.2 9.572 110.71 9.768 110.038 9.768H105.6V11.952H109.492C110.094 11.952 110.57 12.12 110.57 12.834C110.57 13.548 110.094 13.716 109.492 13.716H105.6V16.152H110.15C110.822 16.152 111.312 16.348 111.312 17.076C111.312 17.804 110.822 18 110.15 18H104.648C103.836 18 103.304 17.678 103.304 16.656ZM112.832 17.034V9.264C112.832 8.242 113.364 7.92 114.176 7.92H117.998C120.728 7.92 121.456 9.418 121.456 10.72C121.456 11.812 120.812 12.89 119.72 13.142V13.17C120.896 13.338 121.106 14.192 121.106 15.214C121.106 16.376 121.414 16.81 121.414 17.286C121.414 17.818 120.868 18.182 120.336 18.182C119.076 18.182 118.978 16.964 118.978 16.558C118.978 14.794 118.656 14.08 117.396 14.08H115.128V17.034C115.128 17.72 114.68 18.182 113.98 18.182C113.28 18.182 112.832 17.72 112.832 17.034ZM115.128 9.684V12.4H117.424C118.292 12.4 119.16 12.176 119.16 11.042C119.16 9.964 118.502 9.684 117.494 9.684H115.128Z" fill="#84CC16"/>
<path d="M43.064 32.656V25.264C43.064 24.242 43.596 23.92 44.408 23.92H47.46C49.14 23.92 51.142 24.298 51.142 26.524C51.142 27.378 50.68 28.19 49.728 28.568V28.596C50.792 28.876 51.492 29.632 51.492 31.018C51.492 33.132 49.77 34 47.782 34H44.408C43.596 34 43.064 33.678 43.064 32.656ZM45.36 29.52V32.236H47.292C48.188 32.236 49.196 32.054 49.196 30.892C49.196 29.674 48.132 29.52 47.012 29.52H45.36ZM45.36 25.6V28.064H47.25C48.328 28.064 48.846 27.63 48.846 26.832C48.846 25.866 48.034 25.6 47.18 25.6H45.36ZM53.1675 30.22V24.886C53.1675 24.2 53.6155 23.738 54.3155 23.738C55.0155 23.738 55.4635 24.2 55.4635 24.886V30.402C55.4635 31.774 56.2335 32.39 57.5495 32.39C58.8655 32.39 59.6355 31.774 59.6355 30.402V24.886C59.6355 24.2 60.0835 23.738 60.7835 23.738C61.4835 23.738 61.9315 24.2 61.9315 24.886V30.22C61.9315 32.992 60.2235 34.238 57.5495 34.238C54.8755 34.238 53.1675 32.992 53.1675 30.22ZM64.022 33.062V24.872C64.022 23.948 64.652 23.738 65.268 23.738H65.94C66.654 23.738 66.99 24.018 67.228 24.788L69.23 31.256H69.258L71.232 24.788C71.47 24.018 71.806 23.738 72.52 23.738H73.164C73.78 23.738 74.41 23.948 74.41 24.872V33.062C74.41 33.636 74.13 34.182 73.388 34.182C72.646 34.182 72.366 33.636 72.366 33.062V26.818H72.338L70.196 33.51C70.042 33.986 69.692 34.182 69.216 34.182C68.74 34.182 68.39 33.986 68.236 33.51L66.094 26.818H66.066V33.062C66.066 33.636 65.786 34.182 65.044 34.182C64.302 34.182 64.022 33.636 64.022 33.062ZM76.4917 33.034V24.886C76.4917 24.2 76.9397 23.738 77.6397 23.738C78.3397 23.738 78.7877 24.2 78.7877 24.886V33.034C78.7877 33.72 78.3397 34.182 77.6397 34.182C76.9397 34.182 76.4917 33.72 76.4917 33.034Z" fill="#65A30D"/>
</svg>
