<svg width="16" height="16" viewBox="0 0 16 16" fill="none" xmlns="http://www.w3.org/2000/svg">
<g id="vuesax/bold/youtube">
<g id="youtube">
<path id="Vector" d="M4.66634 3.1665H11.3333C12.2197 3.1665 12.9199 3.46007 13.3968 3.93701C13.8735 4.41389 14.1663 5.11349 14.1663 5.99951V9.99951C14.1663 10.8858 13.8737 11.586 13.3968 12.063C12.9199 12.5399 12.2197 12.8335 11.3333 12.8335H4.66634C3.78022 12.8334 3.08072 12.5398 2.60384 12.063C2.12689 11.586 1.83333 10.8859 1.83333 9.99951V5.99951C1.8334 5.11329 2.12695 4.4139 2.60384 3.93701C3.08072 3.46013 3.78011 3.16658 4.66634 3.1665ZM7.87044 5.89111C7.44837 5.6379 6.94448 5.54103 6.51106 5.78564C6.07717 6.03056 5.89977 6.51254 5.89973 7.00635V8.98682C5.89981 9.48059 6.07718 9.96264 6.51106 10.2075C6.89025 10.4215 7.32321 10.3738 7.70833 10.189L7.87044 10.1021L9.51692 9.11572C9.92816 8.86898 10.2347 8.48008 10.2347 7.99854C10.2345 7.57831 10.0009 7.22833 9.66829 6.97998L9.52083 6.87939L9.51692 6.87744L7.87044 5.89111Z" fill="white" stroke="white"/>
</g>
</g>
</svg>
